<svg width="93" height="37" viewBox="0 0 93 37" fill="none" xmlns="http://www.w3.org/2000/svg">
<path d="M9.8042 16.2348H2.88734L2.84985 13.3293H9.12938C10.1666 13.3293 11.0726 13.1544 11.8474 12.8045C12.6222 12.4546 13.222 11.9547 13.6469 11.3049C14.0843 10.6426 14.303 9.85528 14.303 8.94303C14.303 7.9433 14.1093 7.13102 13.7219 6.50619C13.347 5.86886 12.7659 5.40649 11.9786 5.11907C11.2038 4.81915 10.2166 4.66919 9.01691 4.66919H3.69337V29.0001H0.0756015V1.7075H9.01691C10.4165 1.7075 11.6662 1.85121 12.7659 2.13863C13.8656 2.41356 14.7966 2.85094 15.5589 3.45077C16.3337 4.03811 16.921 4.78791 17.3209 5.70016C17.7208 6.61241 17.9207 7.70586 17.9207 8.98052C17.9207 10.1052 17.6333 11.1237 17.0585 12.0359C16.4836 12.9357 15.6838 13.673 14.6591 14.2478C13.6469 14.8227 12.4597 15.1913 11.0976 15.3538L9.8042 16.2348ZM9.6355 29.0001H1.46272L3.50592 26.0571H9.6355C10.7852 26.0571 11.7599 25.8572 12.5597 25.4573C13.372 25.0574 13.9906 24.495 14.4154 23.7702C14.8403 23.0329 15.0528 22.1644 15.0528 21.1647C15.0528 20.1525 14.8716 19.2777 14.5092 18.5404C14.1468 17.8031 13.5782 17.2345 12.8034 16.8346C12.0286 16.4347 11.0289 16.2348 9.8042 16.2348H4.64936L4.68684 13.3293H11.7349L12.5035 14.379C13.8156 14.4915 14.9278 14.8664 15.8401 15.5037C16.7523 16.1286 17.4459 16.9284 17.9207 17.9031C18.4081 18.8778 18.6518 19.9525 18.6518 21.1272C18.6518 22.8267 18.2769 24.2639 17.5271 25.4385C16.7898 26.6007 15.7463 27.488 14.3967 28.1003C13.0471 28.7001 11.46 29.0001 9.6355 29.0001ZM27.2369 0.207908V29.0001H23.7504V0.207908H27.2369ZM36.5719 8.71809V29.0001H33.0854V8.71809H36.5719ZM32.8229 3.3383C32.8229 2.77596 32.9916 2.30109 33.329 1.91369C33.6789 1.5263 34.1913 1.3326 34.8661 1.3326C35.5284 1.3326 36.0346 1.5263 36.3845 1.91369C36.7469 2.30109 36.9281 2.77596 36.9281 3.3383C36.9281 3.87566 36.7469 4.33803 36.3845 4.72543C36.0346 5.10032 35.5284 5.28777 34.8661 5.28777C34.1913 5.28777 33.6789 5.10032 33.329 4.72543C32.9916 4.33803 32.8229 3.87566 32.8229 3.3383ZM45.5882 12.7482V29.0001H42.1016V8.71809H45.4007L45.5882 12.7482ZM44.8759 18.0905L43.2638 18.0343C43.2763 16.6472 43.4575 15.3663 43.8074 14.1916C44.1573 13.0044 44.6759 11.9735 45.3633 11.0987C46.0506 10.2239 46.9066 9.54911 47.9313 9.07424C48.956 8.58687 50.1432 8.34319 51.4928 8.34319C52.4426 8.34319 53.3173 8.48065 54.1171 8.75558C54.9169 9.01801 55.6105 9.43664 56.1978 10.0115C56.7851 10.5863 57.2413 11.3236 57.5662 12.2234C57.8911 13.1231 58.0536 14.2103 58.0536 15.485V29.0001H54.5857V15.6537C54.5857 14.5915 54.4045 13.7417 54.0421 13.1044C53.6922 12.4671 53.1924 12.0047 52.5426 11.7173C51.8927 11.4174 51.1304 11.2674 50.2557 11.2674C49.231 11.2674 48.3749 11.4486 47.6876 11.811C47.0003 12.1734 46.4505 12.6733 46.0381 13.3106C45.6257 13.9479 45.3258 14.679 45.1383 15.5037C44.9634 16.316 44.8759 17.1783 44.8759 18.0905ZM58.0161 16.1786L55.6917 16.8909C55.7042 15.7787 55.8854 14.7102 56.2353 13.6855C56.5977 12.6608 57.1163 11.7485 57.7911 10.9487C58.4784 10.1489 59.322 9.51787 60.3217 9.0555C61.3214 8.58063 62.4648 8.34319 63.752 8.34319C64.8392 8.34319 65.8014 8.4869 66.6387 8.77432C67.4885 9.06174 68.2008 9.50537 68.7756 10.1052C69.363 10.6926 69.8066 11.4486 70.1065 12.3733C70.4064 13.2981 70.5564 14.3978 70.5564 15.6724V29.0001H67.0698V15.635C67.0698 14.4978 66.8886 13.6168 66.5262 12.9919C66.1763 12.3546 65.6765 11.911 65.0267 11.661C64.3893 11.3986 63.627 11.2674 62.7398 11.2674C61.9775 11.2674 61.3027 11.3986 60.7153 11.661C60.128 11.9235 59.6344 12.2859 59.2345 12.7482C58.8346 13.1981 58.5284 13.7167 58.316 14.3041C58.116 14.8914 58.0161 15.5162 58.0161 16.1786ZM79.2728 12.617V36.7979H75.7862V8.71809H78.9729L79.2728 12.617ZM92.9378 18.6904V19.084C92.9378 20.5586 92.7628 21.927 92.4129 23.1891C92.063 24.4388 91.5507 25.526 90.8759 26.4508C90.2135 27.3755 89.395 28.0941 88.4203 28.6064C87.4455 29.1188 86.3271 29.375 85.0649 29.375C83.7778 29.375 82.6406 29.1625 81.6534 28.7376C80.6661 28.3127 79.8289 27.6942 79.1416 26.8819C78.4542 26.0696 77.9044 25.0949 77.492 23.9577C77.0921 22.8205 76.8172 21.5396 76.6672 20.115V18.0156C76.8172 16.516 77.0984 15.1726 77.5107 13.9854C77.9231 12.7982 78.4667 11.786 79.1416 10.9487C79.8289 10.099 80.6599 9.45539 81.6346 9.01801C82.6094 8.56813 83.7341 8.34319 85.0087 8.34319C86.2834 8.34319 87.4143 8.59312 88.4015 9.09299C89.3888 9.58035 90.2198 10.2802 90.8946 11.1924C91.5694 12.1047 92.0755 13.1981 92.4129 14.4728C92.7628 15.7349 92.9378 17.1408 92.9378 18.6904ZM89.4512 19.084V18.6904C89.4512 17.6781 89.345 16.7284 89.1326 15.8411C88.9201 14.9414 88.589 14.1541 88.1391 13.4793C87.7017 12.792 87.1394 12.2546 86.4521 11.8672C85.7647 11.4673 84.9462 11.2674 83.9965 11.2674C83.1217 11.2674 82.3594 11.4174 81.7096 11.7173C81.0723 12.0172 80.5287 12.4233 80.0788 12.9357C79.6289 13.4356 79.2603 14.0104 78.9729 14.6602C78.6979 15.2975 78.4917 15.9599 78.3543 16.6472V21.5021C78.6042 22.3769 78.9541 23.2016 79.404 23.9764C79.8539 24.7387 80.4537 25.3573 81.2035 25.8322C81.9533 26.2945 82.8968 26.5257 84.034 26.5257C84.9712 26.5257 85.7772 26.332 86.4521 25.9446C87.1394 25.5448 87.7017 25.0012 88.1391 24.3138C88.589 23.6265 88.9201 22.8392 89.1326 21.952C89.345 21.0522 89.4512 20.0962 89.4512 19.084Z" fill="#999999"/>
</svg>
