<svg width="78" height="24" viewBox="0 0 78 24" fill="none" xmlns="http://www.w3.org/2000/svg">
<path d="M8.35667 12.6057H2.76763L2.73734 10.258H7.81139C8.6495 10.258 9.38158 10.1167 10.0076 9.83394C10.6337 9.55121 11.1184 9.14731 11.4617 8.62223C11.8151 8.08705 11.9918 7.4509 11.9918 6.71378C11.9918 5.90597 11.8353 5.24962 11.5223 4.74474C11.2193 4.22976 10.7498 3.85615 10.1137 3.6239C9.4876 3.38156 8.68989 3.26039 7.72052 3.26039H3.41893V22.9205H0.495662V0.867249H7.72052C8.85145 0.867249 9.86121 0.983372 10.7498 1.21562C11.6384 1.43777 12.3907 1.79118 13.0066 2.27587C13.6327 2.75046 14.1073 3.35631 14.4304 4.09344C14.7535 4.83057 14.9151 5.71411 14.9151 6.74407C14.9151 7.65286 14.6828 8.47581 14.2183 9.21294C13.7538 9.93997 13.1076 10.5357 12.2796 11.0002C11.4617 11.4647 10.5024 11.7626 9.40177 11.8939L8.35667 12.6057ZM8.22035 22.9205H1.6165L3.26746 20.5425H8.22035C9.14933 20.5425 9.93695 20.3809 10.5832 20.0578C11.2395 19.7347 11.7394 19.2803 12.0827 18.6946C12.426 18.0989 12.5977 17.3971 12.5977 16.5893C12.5977 15.7713 12.4513 15.0645 12.1584 14.4688C11.8656 13.873 11.4062 13.4136 10.7801 13.0904C10.154 12.7673 9.34623 12.6057 8.35667 12.6057H4.19139L4.22169 10.258H9.91675L10.5378 11.1062C11.598 11.1971 12.4967 11.5001 13.2338 12.015C13.9709 12.5199 14.5314 13.1662 14.9151 13.9538C15.3089 14.7414 15.5058 15.6098 15.5058 16.559C15.5058 17.9322 15.2029 19.0935 14.597 20.0426C14.0012 20.9817 13.1581 21.6987 12.0675 22.1934C10.977 22.6781 9.6946 22.9205 8.22035 22.9205ZM18.6562 14.908V14.5596C18.6562 13.3782 18.8279 12.2826 19.1712 11.2729C19.5145 10.253 20.0093 9.36945 20.6556 8.62223C21.3018 7.86491 22.0844 7.27924 23.0033 6.86524C23.9222 6.44114 24.9521 6.22909 26.0932 6.22909C27.2443 6.22909 28.2793 6.44114 29.1982 6.86524C30.1272 7.27924 30.9148 7.86491 31.561 8.62223C32.2174 9.36945 32.7172 10.253 33.0605 11.2729C33.4038 12.2826 33.5755 13.3782 33.5755 14.5596V14.908C33.5755 16.0894 33.4038 17.185 33.0605 18.1948C32.7172 19.2045 32.2174 20.0881 31.561 20.8454C30.9148 21.5926 30.1322 22.1783 29.2133 22.6024C28.3045 23.0164 27.2746 23.2234 26.1234 23.2234C24.9723 23.2234 23.9373 23.0164 23.0184 22.6024C22.0995 22.1783 21.3119 21.5926 20.6556 20.8454C20.0093 20.0881 19.5145 19.2045 19.1712 18.1948C18.8279 17.185 18.6562 16.0894 18.6562 14.908ZM21.4583 14.5596V14.908C21.4583 15.7259 21.5543 16.4984 21.7461 17.2254C21.938 17.9423 22.2258 18.5785 22.6095 19.1339C23.0033 19.6892 23.493 20.1285 24.0787 20.4516C24.6643 20.7646 25.3459 20.9211 26.1234 20.9211C26.8909 20.9211 27.5624 20.7646 28.1379 20.4516C28.7236 20.1285 29.2083 19.6892 29.592 19.1339C29.9757 18.5785 30.2635 17.9423 30.4553 17.2254C30.6573 16.4984 30.7583 15.7259 30.7583 14.908V14.5596C30.7583 13.7518 30.6573 12.9895 30.4553 12.2725C30.2635 11.5455 29.9706 10.9043 29.5768 10.3489C29.1931 9.78346 28.7084 9.33916 28.1228 9.01604C27.5472 8.69291 26.8707 8.53135 26.0932 8.53135C25.3257 8.53135 24.6492 8.69291 24.0635 9.01604C23.488 9.33916 23.0033 9.78346 22.6095 10.3489C22.2258 10.9043 21.938 11.5455 21.7461 12.2725C21.5543 12.9895 21.4583 13.7518 21.4583 14.5596ZM36.3473 14.908V14.5596C36.3473 13.3782 36.519 12.2826 36.8623 11.2729C37.2056 10.253 37.7004 9.36945 38.3466 8.62223C38.9929 7.86491 39.7754 7.27924 40.6943 6.86524C41.6132 6.44114 42.6432 6.22909 43.7842 6.22909C44.9353 6.22909 45.9703 6.44114 46.8892 6.86524C47.8182 7.27924 48.6058 7.86491 49.2521 8.62223C49.9084 9.36945 50.4082 10.253 50.7516 11.2729C51.0949 12.2826 51.2665 13.3782 51.2665 14.5596V14.908C51.2665 16.0894 51.0949 17.185 50.7516 18.1948C50.4082 19.2045 49.9084 20.0881 49.2521 20.8454C48.6058 21.5926 47.8232 22.1783 46.9044 22.6024C45.9956 23.0164 44.9656 23.2234 43.8145 23.2234C42.6634 23.2234 41.6284 23.0164 40.7095 22.6024C39.7906 22.1783 39.003 21.5926 38.3466 20.8454C37.7004 20.0881 37.2056 19.2045 36.8623 18.1948C36.519 17.185 36.3473 16.0894 36.3473 14.908ZM39.1494 14.5596V14.908C39.1494 15.7259 39.2453 16.4984 39.4372 17.2254C39.629 17.9423 39.9168 18.5785 40.3005 19.1339C40.6943 19.6892 41.1841 20.1285 41.7697 20.4516C42.3554 20.7646 43.037 20.9211 43.8145 20.9211C44.5819 20.9211 45.2534 20.7646 45.829 20.4516C46.4146 20.1285 46.8993 19.6892 47.283 19.1339C47.6667 18.5785 47.9545 17.9423 48.1464 17.2254C48.3483 16.4984 48.4493 15.7259 48.4493 14.908V14.5596C48.4493 13.7518 48.3483 12.9895 48.1464 12.2725C47.9545 11.5455 47.6617 10.9043 47.2679 10.3489C46.8842 9.78346 46.3995 9.33916 45.8138 9.01604C45.2383 8.69291 44.5617 8.53135 43.7842 8.53135C43.0168 8.53135 42.3402 8.69291 41.7546 9.01604C41.179 9.33916 40.6943 9.78346 40.3005 10.3489C39.9168 10.9043 39.629 11.5455 39.4372 12.2725C39.2453 12.9895 39.1494 13.7518 39.1494 14.5596ZM57.5675 9.7885V22.9205H54.7502V6.53202H57.416L57.5675 9.7885ZM56.9919 14.1052L55.6893 14.0598C55.6994 12.939 55.8458 11.904 56.1285 10.9548C56.4113 9.99551 56.8303 9.16245 57.3857 8.45562C57.9411 7.74878 58.6328 7.20351 59.4608 6.8198C60.2888 6.42599 61.248 6.22909 62.3386 6.22909C63.106 6.22909 63.8128 6.34016 64.4591 6.56231C65.1053 6.77436 65.6658 7.11263 66.1403 7.57712C66.6149 8.04161 66.9835 8.63737 67.246 9.3644C67.5086 10.0914 67.6398 10.9699 67.6398 11.9999V22.9205H64.8378V12.1362C64.8378 11.2779 64.6913 10.5913 64.3985 10.0763C64.1158 9.56131 63.7119 9.1877 63.1868 8.95545C62.6617 8.71311 62.0458 8.59194 61.3389 8.59194C60.5109 8.59194 59.8192 8.73835 59.2639 9.03118C58.7085 9.32401 58.2642 9.72792 57.931 10.2429C57.5978 10.7579 57.3554 11.3486 57.2039 12.015C57.0626 12.6714 56.9919 13.3681 56.9919 14.1052ZM67.6096 12.5603L65.7314 13.1359C65.7415 12.2372 65.8879 11.3738 66.1706 10.5458C66.4635 9.71782 66.8825 8.98069 67.4278 8.33445C67.9832 7.6882 68.6648 7.17827 69.4726 6.80466C70.2804 6.42095 71.2043 6.22909 72.2444 6.22909C73.1229 6.22909 73.9004 6.34521 74.5769 6.57746C75.2636 6.8097 75.8391 7.16817 76.3036 7.65286C76.7782 8.12744 77.1367 8.73835 77.379 9.48558C77.6214 10.2328 77.7425 11.1214 77.7425 12.1513V22.9205H74.9253V12.1211C74.9253 11.2022 74.7789 10.4903 74.486 9.98541C74.2033 9.47043 73.7994 9.11196 73.2743 8.91001C72.7593 8.69796 72.1434 8.59194 71.4265 8.59194C70.8105 8.59194 70.2652 8.69796 69.7906 8.91001C69.3161 9.12206 68.9172 9.41489 68.5941 9.7885C68.2709 10.152 68.0236 10.5711 67.8519 11.0457C67.6903 11.5202 67.6096 12.0251 67.6096 12.5603Z" fill="#999999"/>
</svg>
