<svg width="97" height="31" viewBox="0 0 97 31" fill="none" xmlns="http://www.w3.org/2000/svg">
<path d="M6.34507 23.8894H1.74056L1.77085 21.5114H6.34507C7.9203 21.5114 9.233 21.1832 10.2832 20.5269C11.3333 19.8605 12.1209 18.9315 12.646 17.7399C13.1812 16.5383 13.4488 15.1348 13.4488 13.5292V12.1812C13.4488 10.919 13.2973 9.79816 12.9944 8.81869C12.6914 7.82913 12.2471 6.99607 11.6615 6.31953C11.0758 5.63289 10.3589 5.11286 9.51068 4.75945C8.67258 4.40603 7.70825 4.22932 6.61771 4.22932H1.64968V1.83618H6.61771C8.06167 1.83618 9.37941 2.07853 10.5709 2.56321C11.7625 3.0378 12.7874 3.72949 13.6457 4.63827C14.5141 5.53696 15.1805 6.62751 15.645 7.90991C16.1095 9.18221 16.3417 10.6161 16.3417 12.2115V13.5292C16.3417 15.1247 16.1095 16.5636 15.645 17.846C15.1805 19.1183 14.509 20.2038 13.6305 21.1025C12.7621 22.0011 11.712 22.6928 10.4801 23.1775C9.25824 23.6521 7.87991 23.8894 6.34507 23.8894ZM3.30064 1.83618V23.8894H0.377376V1.83618H3.30064ZM23.1122 10.0758V23.8894H20.3101V7.50095H23.0365L23.1122 10.0758ZM28.2317 7.41007L28.2165 10.0153C27.9843 9.96477 27.7621 9.93448 27.5501 9.92438C27.3481 9.90419 27.1159 9.89409 26.8534 9.89409C26.2071 9.89409 25.6366 9.99507 25.1418 10.197C24.647 10.399 24.228 10.6817 23.8847 11.0452C23.5413 11.4087 23.2687 11.8429 23.0667 12.3478C22.8749 12.8426 22.7487 13.3879 22.6881 13.9836L21.9005 14.438C21.9005 13.4485 21.9964 12.5195 22.1883 11.6511C22.3902 10.7827 22.6982 10.0153 23.1122 9.34882C23.5262 8.67228 24.0513 8.1472 24.6874 7.77359C25.3337 7.38988 26.1011 7.19802 26.9897 7.19802C27.1916 7.19802 27.4239 7.22327 27.6864 7.27376C27.949 7.31415 28.1307 7.35959 28.2317 7.41007ZM29.7766 15.8769V15.5286C29.7766 14.3471 29.9483 13.2516 30.2916 12.2418C30.6349 11.2219 31.1297 10.3384 31.776 9.59116C32.4222 8.83384 33.2048 8.24818 34.1237 7.83417C35.0425 7.41007 36.0725 7.19802 37.2135 7.19802C38.3647 7.19802 39.3997 7.41007 40.3185 7.83417C41.2475 8.24818 42.0351 8.83384 42.6814 9.59116C43.3377 10.3384 43.8376 11.2219 44.1809 12.2418C44.5242 13.2516 44.6959 14.3471 44.6959 15.5286V15.8769C44.6959 17.0584 44.5242 18.154 44.1809 19.1637C43.8376 20.1735 43.3377 21.057 42.6814 21.8143C42.0351 22.5616 41.2526 23.1472 40.3337 23.5713C39.4249 23.9853 38.395 24.1923 37.2438 24.1923C36.0927 24.1923 35.0577 23.9853 34.1388 23.5713C33.2199 23.1472 32.4323 22.5616 31.776 21.8143C31.1297 21.057 30.6349 20.1735 30.2916 19.1637C29.9483 18.154 29.7766 17.0584 29.7766 15.8769ZM32.5787 15.5286V15.8769C32.5787 16.6948 32.6746 17.4673 32.8665 18.1943C33.0584 18.9113 33.3461 19.5474 33.7298 20.1028C34.1237 20.6582 34.6134 21.0974 35.1991 21.4205C35.7847 21.7336 36.4663 21.8901 37.2438 21.8901C38.0112 21.8901 38.6827 21.7336 39.2583 21.4205C39.844 21.0974 40.3286 20.6582 40.7124 20.1028C41.0961 19.5474 41.3838 18.9113 41.5757 18.1943C41.7777 17.4673 41.8786 16.6948 41.8786 15.8769V15.5286C41.8786 14.7208 41.7777 13.9584 41.5757 13.2415C41.3838 12.5144 41.091 11.8732 40.6972 11.3179C40.3135 10.7524 39.8288 10.3081 39.2432 9.98497C38.6676 9.66184 37.991 9.50028 37.2135 9.50028C36.4461 9.50028 35.7696 9.66184 35.1839 9.98497C34.6083 10.3081 34.1237 10.7524 33.7298 11.3179C33.3461 11.8732 33.0584 12.5144 32.8665 13.2415C32.6746 13.9584 32.5787 14.7208 32.5787 15.5286ZM51.0119 10.6514V30.1903H48.1947V7.50095H50.7696L51.0119 10.6514ZM62.0537 15.5589V15.8769C62.0537 17.0685 61.9123 18.1741 61.6296 19.194C61.3469 20.2038 60.9329 21.0823 60.3876 21.8295C59.8524 22.5767 59.191 23.1573 58.4034 23.5713C57.6158 23.9853 56.712 24.1923 55.6922 24.1923C54.6521 24.1923 53.7332 24.0207 52.9355 23.6774C52.1378 23.334 51.4613 22.8342 50.9059 22.1779C50.3505 21.5215 49.9062 20.7339 49.573 19.815C49.2499 18.8961 49.0278 17.8611 48.9066 16.71V15.0136C49.0278 13.8019 49.2549 12.7164 49.5882 11.7571C49.9214 10.7978 50.3606 9.97992 50.9059 9.30338C51.4613 8.61674 52.1328 8.09671 52.9204 7.7433C53.708 7.37978 54.6168 7.19802 55.6467 7.19802C56.6767 7.19802 57.5905 7.39998 58.3883 7.80388C59.186 8.19769 59.8575 8.76316 60.4027 9.50028C60.948 10.2374 61.357 11.121 61.6296 12.1509C61.9123 13.1708 62.0537 14.3068 62.0537 15.5589ZM59.2365 15.8769V15.5589C59.2365 14.741 59.1506 13.9735 58.979 13.2566C58.8073 12.5296 58.5397 11.8934 58.1762 11.3481C57.8228 10.7928 57.3684 10.3586 56.813 10.0456C56.2577 9.72243 55.5963 9.56087 54.8288 9.56087C54.122 9.56087 53.5061 9.68204 52.981 9.92438C52.466 10.1667 52.0267 10.4949 51.6632 10.9089C51.2997 11.3128 51.0018 11.7773 50.7696 12.3024C50.5474 12.8174 50.3808 13.3525 50.2698 13.9079V17.8308C50.4717 18.5377 50.7544 19.2041 51.118 19.8302C51.4815 20.4461 51.9662 20.9459 52.572 21.3297C53.1779 21.7033 53.9402 21.8901 54.8591 21.8901C55.6165 21.8901 56.2678 21.7336 56.813 21.4205C57.3684 21.0974 57.8228 20.6582 58.1762 20.1028C58.5397 19.5474 58.8073 18.9113 58.979 18.1943C59.1506 17.4673 59.2365 16.6948 59.2365 15.8769ZM68.6727 0.624467V23.8894H65.8555V0.624467H68.6727ZM79.9719 24.1923C78.8309 24.1923 77.7959 24.0005 76.8669 23.6168C75.948 23.223 75.1554 22.6726 74.4889 21.9658C73.8326 21.259 73.3277 20.4209 72.9743 19.4515C72.6209 18.4821 72.4442 17.4219 72.4442 16.2707V15.6346C72.4442 14.3017 72.6411 13.1152 73.0349 12.0752C73.4287 11.025 73.9639 10.1364 74.6404 9.4094C75.3169 8.68237 76.0844 8.13205 76.9427 7.75844C77.8009 7.38483 78.6895 7.19802 79.6084 7.19802C80.7797 7.19802 81.7895 7.39998 82.6377 7.80388C83.496 8.20779 84.1978 8.77325 84.7431 9.50028C85.2883 10.2172 85.6922 11.0654 85.9548 12.0449C86.2173 13.0143 86.3486 14.0745 86.3486 15.2256V16.4828H74.1103V14.1957H83.5465V13.9836C83.5061 13.2566 83.3546 12.5498 83.0921 11.8631C82.8397 11.1765 82.4358 10.611 81.8804 10.1667C81.325 9.72243 80.5677 9.50028 79.6084 9.50028C78.9723 9.50028 78.3866 9.6366 77.8514 9.90924C77.3163 10.1718 76.8568 10.5656 76.4731 11.0907C76.0894 11.6157 75.7915 12.2569 75.5795 13.0143C75.3674 13.7716 75.2614 14.645 75.2614 15.6346V16.2707C75.2614 17.0483 75.3674 17.7803 75.5795 18.467C75.8016 19.1435 76.1197 19.7393 76.5337 20.2543C76.9578 20.7692 77.4677 21.1731 78.0635 21.466C78.6693 21.7588 79.356 21.9052 80.1234 21.9052C81.113 21.9052 81.9511 21.7033 82.6377 21.2994C83.3244 20.8955 83.9252 20.3552 84.4401 19.6787L86.1365 21.0267C85.7831 21.5619 85.3338 22.0718 84.7885 22.5565C84.2432 23.0412 83.5717 23.435 82.774 23.7379C81.9864 24.0409 81.0524 24.1923 79.9719 24.1923ZM96.4816 7.50095V9.65175H87.6209V7.50095H96.4816ZM90.6199 3.51744H93.422V19.8302C93.422 20.3855 93.5078 20.8046 93.6795 21.0873C93.8511 21.37 94.0733 21.5569 94.3459 21.6477C94.6185 21.7386 94.9114 21.784 95.2244 21.784C95.4567 21.784 95.699 21.7639 95.9514 21.7235C96.214 21.673 96.4109 21.6326 96.5421 21.6023L96.5573 23.8894C96.3351 23.9601 96.0423 24.0257 95.6788 24.0863C95.3254 24.157 94.8962 24.1923 94.3914 24.1923C93.7047 24.1923 93.0736 24.056 92.498 23.7834C91.9225 23.5107 91.463 23.0563 91.1197 22.4202C90.7865 21.774 90.6199 20.9056 90.6199 19.815V3.51744Z" fill="#999999"/>
</svg>
