<svg width="137" height="29" viewBox="0 0 137 29" fill="none" xmlns="http://www.w3.org/2000/svg">
<path d="M18.0477 10.7391V12.1325C18.0477 13.7885 17.8407 15.2729 17.4267 16.5856C17.0127 17.8983 16.4169 19.0141 15.6394 19.9329C14.8619 20.8518 13.9278 21.5536 12.8373 22.0383C11.7568 22.523 10.5451 22.7653 9.20215 22.7653C7.89955 22.7653 6.70298 22.523 5.61244 22.0383C4.53199 21.5536 3.59291 20.8518 2.7952 19.9329C2.00759 19.0141 1.39668 17.8983 0.962482 16.5856C0.528284 15.2729 0.311185 13.7885 0.311185 12.1325V10.7391C0.311185 9.08304 0.523235 7.60374 0.947336 6.30115C1.38153 4.98846 1.99244 3.87267 2.78006 2.95378C3.56767 2.0248 4.5017 1.31797 5.58215 0.833282C6.67269 0.348596 7.86926 0.106253 9.17185 0.106253C10.5148 0.106253 11.7266 0.348596 12.807 0.833282C13.8975 1.31797 14.8316 2.0248 15.6091 2.95378C16.3967 3.87267 16.9975 4.98846 17.4115 6.30115C17.8356 7.60374 18.0477 9.08304 18.0477 10.7391ZM15.1547 12.1325V10.7088C15.1547 9.39607 15.0184 8.23484 14.7457 7.22508C14.4832 6.21532 14.0944 5.36712 13.5795 4.68048C13.0645 3.99384 12.4334 3.47381 11.6862 3.1204C10.949 2.76698 10.1109 2.59027 9.17185 2.59027C8.26307 2.59027 7.44011 2.76698 6.70298 3.1204C5.97595 3.47381 5.3499 3.99384 4.82483 4.68048C4.30985 5.36712 3.91099 6.21532 3.62826 7.22508C3.34552 8.23484 3.20416 9.39607 3.20416 10.7088V12.1325C3.20416 13.4553 3.34552 14.6266 3.62826 15.6465C3.91099 16.6563 4.31489 17.5095 4.83997 18.2063C5.37515 18.8929 6.00625 19.4129 6.73328 19.7663C7.4704 20.1198 8.29336 20.2965 9.20215 20.2965C10.1513 20.2965 10.9945 20.1198 11.7316 19.7663C12.4687 19.4129 13.0897 18.8929 13.5946 18.2063C14.1096 17.5095 14.4984 16.6563 14.7609 15.6465C15.0234 14.6266 15.1547 13.4553 15.1547 12.1325ZM24.803 9.22441V28.7633H21.9857V6.07395H24.5606L24.803 9.22441ZM35.8447 14.1319V14.4499C35.8447 15.6415 35.7034 16.7471 35.4206 17.767C35.1379 18.7768 34.7239 19.6553 34.1786 20.4025C33.6435 21.1497 32.9821 21.7303 32.1944 22.1443C31.4068 22.5583 30.5031 22.7653 29.4832 22.7653C28.4432 22.7653 27.5243 22.5937 26.7266 22.2504C25.9289 21.907 25.2523 21.4072 24.697 20.7509C24.1416 20.0945 23.6973 19.3069 23.3641 18.388C23.0409 17.4691 22.8188 16.4341 22.6976 15.283V13.5866C22.8188 12.3749 23.046 11.2894 23.3792 10.3301C23.7124 9.37083 24.1517 8.55292 24.697 7.87638C25.2523 7.18974 25.9238 6.66971 26.7114 6.31629C27.499 5.95278 28.4078 5.77102 29.4378 5.77102C30.4678 5.77102 31.3816 5.97298 32.1793 6.37688C32.977 6.77069 33.6485 7.33615 34.1938 8.07328C34.739 8.81041 35.148 9.69395 35.4206 10.7239C35.7034 11.7438 35.8447 12.8798 35.8447 14.1319ZM33.0275 14.4499V14.1319C33.0275 13.314 32.9417 12.5465 32.77 11.8296C32.5984 11.1026 32.3308 10.4664 31.9672 9.92115C31.6138 9.36578 31.1594 8.93158 30.6041 8.61855C30.0487 8.29543 29.3873 8.13387 28.6199 8.13387C27.9131 8.13387 27.2971 8.25504 26.772 8.49738C26.257 8.73973 25.8178 9.0679 25.4543 9.4819C25.0908 9.88581 24.7929 10.3503 24.5606 10.8754C24.3385 11.3904 24.1719 11.9255 24.0608 12.4809V16.4038C24.2628 17.1107 24.5455 17.7771 24.909 18.4032C25.2725 19.0191 25.7572 19.5189 26.3631 19.9027C26.9689 20.2763 27.7313 20.4631 28.6502 20.4631C29.4075 20.4631 30.0588 20.3066 30.6041 19.9935C31.1594 19.6704 31.6138 19.2312 31.9672 18.6758C32.3308 18.1204 32.5984 17.4843 32.77 16.7673C32.9417 16.0403 33.0275 15.2678 33.0275 14.4499ZM46.2201 22.7653C45.079 22.7653 44.044 22.5735 43.115 22.1898C42.1961 21.796 41.4035 21.2456 40.737 20.5388C40.0807 19.832 39.5758 18.9939 39.2224 18.0245C38.869 17.0551 38.6923 15.9949 38.6923 14.8437V14.2076C38.6923 12.8747 38.8892 11.6882 39.283 10.6482C39.6768 9.59802 40.212 8.70943 40.8885 7.9824C41.565 7.25537 42.3325 6.70505 43.1908 6.33144C44.0491 5.95783 44.9377 5.77102 45.8565 5.77102C47.0279 5.77102 48.0376 5.97298 48.8858 6.37688C49.7441 6.78079 50.4459 7.34625 50.9912 8.07328C51.5365 8.79021 51.9404 9.63841 52.2029 10.6179C52.4654 11.5873 52.5967 12.6475 52.5967 13.7986V15.0558H40.3584V12.7687H49.7946V12.5566C49.7542 11.8296 49.6028 11.1228 49.3402 10.4361C49.0878 9.74949 48.6839 9.18402 48.1285 8.73973C47.5731 8.29543 46.8158 8.07328 45.8565 8.07328C45.2204 8.07328 44.6347 8.2096 44.0996 8.48224C43.5644 8.74477 43.1049 9.13858 42.7212 9.66366C42.3375 10.1887 42.0396 10.8299 41.8276 11.5873C41.6155 12.3446 41.5095 13.218 41.5095 14.2076V14.8437C41.5095 15.6213 41.6155 16.3533 41.8276 17.04C42.0497 17.7165 42.3678 18.3123 42.7818 18.8273C43.2059 19.3422 43.7158 19.7461 44.3116 20.039C44.9175 20.3318 45.6041 20.4782 46.3715 20.4782C47.3611 20.4782 48.1992 20.2763 48.8858 19.8724C49.5725 19.4685 50.1733 18.9282 50.6883 18.2517L52.3847 19.5997C52.0312 20.1349 51.5819 20.6448 51.0366 21.1295C50.4914 21.6142 49.8199 22.008 49.0221 22.3109C48.2345 22.6139 47.3005 22.7653 46.2201 22.7653ZM58.6704 9.57278V22.4624H55.8683V6.07395H58.519L58.6704 9.57278ZM58.004 13.6472L56.8377 13.6017C56.8478 12.4809 57.0144 11.4459 57.3375 10.4967C57.6607 9.53744 58.1151 8.70438 58.7007 7.99755C59.2864 7.29072 59.9831 6.74544 60.7909 6.36173C61.6088 5.96793 62.5126 5.77102 63.5021 5.77102C64.31 5.77102 65.037 5.8821 65.6832 6.10424C66.3295 6.31629 66.8798 6.65961 67.3342 7.1342C67.7987 7.60879 68.1521 8.22475 68.3944 8.98207C68.6368 9.72929 68.758 10.6431 68.758 11.7236V22.4624H65.9407V11.6933C65.9407 10.835 65.8145 10.1483 65.5621 9.63337C65.3096 9.10829 64.9411 8.72963 64.4564 8.49738C63.9717 8.25504 63.3759 8.13387 62.6691 8.13387C61.9724 8.13387 61.3362 8.28028 60.7606 8.57311C60.1952 8.86595 59.7054 9.26985 59.2914 9.78483C58.8875 10.2998 58.5695 10.8905 58.3372 11.557C58.1151 12.2133 58.004 12.91 58.004 13.6472ZM79.4059 22.4624H74.8014L74.8317 20.0844H79.4059C80.9811 20.0844 82.2938 19.7562 83.344 19.0999C84.3941 18.4334 85.1818 17.5045 85.7068 16.3129C86.242 15.1113 86.5096 13.7078 86.5096 12.1022V10.7542C86.5096 9.492 86.3581 8.37116 86.0552 7.39169C85.7523 6.40212 85.308 5.56907 84.7223 4.89253C84.1366 4.20589 83.4197 3.68586 82.5715 3.33245C81.7334 2.97903 80.7691 2.80232 79.6785 2.80232H74.7105V0.409182H79.6785C81.1225 0.409182 82.4402 0.651525 83.6318 1.13621C84.8233 1.6108 85.8482 2.30249 86.7065 3.21127C87.5749 4.10996 88.2413 5.20051 88.7058 6.48291C89.1703 7.75521 89.4026 9.18907 89.4026 10.7845V12.1022C89.4026 13.6977 89.1703 15.1366 88.7058 16.419C88.2413 17.6913 87.5698 18.7768 86.6913 19.6755C85.823 20.5741 84.7728 21.2658 83.5409 21.7505C82.3191 22.2251 80.9408 22.4624 79.4059 22.4624ZM76.3615 0.409182V22.4624H73.4382V0.409182H76.3615ZM92.6288 14.4499V14.1016C92.6288 12.9201 92.8004 11.8246 93.1437 10.8148C93.4871 9.79493 93.9818 8.91138 94.6281 8.16416C95.2743 7.40684 96.0569 6.82118 96.9758 6.40717C97.8947 5.98307 98.9246 5.77102 100.066 5.77102C101.217 5.77102 102.252 5.98307 103.171 6.40717C104.1 6.82118 104.887 7.40684 105.534 8.16416C106.19 8.91138 106.69 9.79493 107.033 10.8148C107.376 11.8246 107.548 12.9201 107.548 14.1016V14.4499C107.548 15.6314 107.376 16.7269 107.033 17.7367C106.69 18.7465 106.19 19.63 105.534 20.3873C104.887 21.1346 104.105 21.7202 103.186 22.1443C102.277 22.5583 101.247 22.7653 100.096 22.7653C98.9448 22.7653 97.9098 22.5583 96.9909 22.1443C96.072 21.7202 95.2844 21.1346 94.6281 20.3873C93.9818 19.63 93.4871 18.7465 93.1437 17.7367C92.8004 16.7269 92.6288 15.6314 92.6288 14.4499ZM95.4308 14.1016V14.4499C95.4308 15.2678 95.5268 16.0403 95.7186 16.7673C95.9105 17.4843 96.1983 18.1204 96.582 18.6758C96.9758 19.2312 97.4655 19.6704 98.0512 19.9935C98.6368 20.3066 99.3184 20.4631 100.096 20.4631C100.863 20.4631 101.535 20.3066 102.11 19.9935C102.696 19.6704 103.181 19.2312 103.564 18.6758C103.948 18.1204 104.236 17.4843 104.428 16.7673C104.63 16.0403 104.731 15.2678 104.731 14.4499V14.1016C104.731 13.2938 104.63 12.5314 104.428 11.8145C104.236 11.0874 103.943 10.4462 103.549 9.89085C103.166 9.32539 102.681 8.88109 102.095 8.55797C101.52 8.23484 100.843 8.07328 100.066 8.07328C99.2982 8.07328 98.6217 8.23484 98.036 8.55797C97.4605 8.88109 96.9758 9.32539 96.582 9.89085C96.1983 10.4462 95.9105 11.0874 95.7186 11.8145C95.5268 12.5314 95.4308 13.2938 95.4308 14.1016ZM110.32 14.4499V14.1016C110.32 12.9201 110.491 11.8246 110.835 10.8148C111.178 9.79493 111.673 8.91138 112.319 8.16416C112.965 7.40684 113.748 6.82118 114.667 6.40717C115.586 5.98307 116.616 5.77102 117.757 5.77102C118.908 5.77102 119.943 5.98307 120.862 6.40717C121.791 6.82118 122.578 7.40684 123.225 8.16416C123.881 8.91138 124.381 9.79493 124.724 10.8148C125.067 11.8246 125.239 12.9201 125.239 14.1016V14.4499C125.239 15.6314 125.067 16.7269 124.724 17.7367C124.381 18.7465 123.881 19.63 123.225 20.3873C122.578 21.1346 121.796 21.7202 120.877 22.1443C119.968 22.5583 118.938 22.7653 117.787 22.7653C116.636 22.7653 115.601 22.5583 114.682 22.1443C113.763 21.7202 112.975 21.1346 112.319 20.3873C111.673 19.63 111.178 18.7465 110.835 17.7367C110.491 16.7269 110.32 15.6314 110.32 14.4499ZM113.122 14.1016V14.4499C113.122 15.2678 113.218 16.0403 113.41 16.7673C113.602 17.4843 113.889 18.1204 114.273 18.6758C114.667 19.2312 115.157 19.6704 115.742 19.9935C116.328 20.3066 117.009 20.4631 117.787 20.4631C118.554 20.4631 119.226 20.3066 119.801 19.9935C120.387 19.6704 120.872 19.2312 121.256 18.6758C121.639 18.1204 121.927 17.4843 122.119 16.7673C122.321 16.0403 122.422 15.2678 122.422 14.4499V14.1016C122.422 13.2938 122.321 12.5314 122.119 11.8145C121.927 11.0874 121.634 10.4462 121.24 9.89085C120.857 9.32539 120.372 8.88109 119.786 8.55797C119.211 8.23484 118.534 8.07328 117.757 8.07328C116.989 8.07328 116.313 8.23484 115.727 8.55797C115.152 8.88109 114.667 9.32539 114.273 9.89085C113.889 10.4462 113.602 11.0874 113.41 11.8145C113.218 12.5314 113.122 13.2938 113.122 14.1016ZM131.555 8.64885V22.4624H128.753V6.07395H131.479L131.555 8.64885ZM136.675 5.98307L136.659 8.58826C136.427 8.53777 136.205 8.50748 135.993 8.49738C135.791 8.47719 135.559 8.46709 135.296 8.46709C134.65 8.46709 134.08 8.56807 133.585 8.77002C133.09 8.97197 132.671 9.2547 132.328 9.61822C131.984 9.98173 131.712 10.4159 131.51 10.9208C131.318 11.4156 131.192 11.9609 131.131 12.5566L130.343 13.011C130.343 12.0215 130.439 11.0925 130.631 10.2241C130.833 9.35568 131.141 8.58826 131.555 7.92182C131.969 7.24528 132.494 6.7202 133.13 6.34659C133.777 5.96288 134.544 5.77102 135.433 5.77102C135.635 5.77102 135.867 5.79627 136.129 5.84675C136.392 5.88715 136.574 5.93258 136.675 5.98307Z" fill="#999999"/>
</svg>
