<svg width="74" height="29" viewBox="0 0 74 29" fill="none" xmlns="http://www.w3.org/2000/svg">
<path d="M14.3459 28.8489V4.66799L14.6458 0.769053H17.8325V28.8489H14.3459ZM0.718387 11.135V10.7413C0.718387 9.19176 0.899587 7.78589 1.26199 6.52373C1.62439 5.24908 2.1555 4.15563 2.8553 3.24338C3.55511 2.33113 4.39863 1.63132 5.38586 1.14395C6.38559 0.644087 7.52278 0.394155 8.79744 0.394155C10.0721 0.394155 11.1905 0.619094 12.1528 1.06897C13.1275 1.50635 13.9523 2.14993 14.6271 2.99969C15.3144 3.83697 15.858 4.84919 16.2579 6.03637C16.6578 7.22354 16.9327 8.56693 17.0827 10.0665V11.791C16.9452 13.2781 16.6765 14.6153 16.2766 15.8025C15.8768 16.9896 15.3332 18.0019 14.6458 18.8391C13.971 19.6764 13.14 20.32 12.1528 20.7699C11.178 21.2072 10.0471 21.4259 8.75995 21.4259C7.51029 21.4259 6.38559 21.1697 5.38586 20.6574C4.39863 20.145 3.55511 19.4265 2.8553 18.5017C2.16799 17.577 1.63689 16.4898 1.26199 15.2401C0.899587 13.978 0.718387 12.6096 0.718387 11.135ZM4.20494 10.7413V11.135C4.20494 12.1472 4.31116 13.1032 4.5236 14.0029C4.73604 14.8902 5.06095 15.6775 5.49833 16.3648C5.94821 17.0521 6.51056 17.5957 7.18537 17.9956C7.87269 18.383 8.68497 18.5767 9.62221 18.5767C10.7719 18.5767 11.7279 18.3268 12.4902 17.8269C13.265 17.327 13.8835 16.671 14.3459 15.8587C14.8083 15.0339 15.1644 14.1529 15.4144 13.2157V8.69814C15.2769 8.01083 15.0582 7.34226 14.7583 6.69244C14.4709 6.04262 14.096 5.46152 13.6336 4.94916C13.1712 4.42431 12.6089 4.01192 11.9466 3.712C11.2968 3.39959 10.5345 3.24338 9.6597 3.24338C8.70996 3.24338 7.89143 3.44332 7.20412 3.84321C6.51681 4.24311 5.94821 4.79296 5.49833 5.49277C5.06095 6.18008 4.73604 6.97361 4.5236 7.87337C4.31116 8.77312 4.20494 9.72911 4.20494 10.7413ZM26.8675 3.95568V21.051H23.3997V0.769053H26.7738L26.8675 3.95568ZM33.2033 0.656583L33.1845 3.8807C32.8971 3.81822 32.6222 3.78073 32.3598 3.76824C32.1098 3.74324 31.8224 3.73075 31.4975 3.73075C30.6977 3.73075 29.9917 3.85571 29.3793 4.10564C28.767 4.35558 28.2484 4.70548 27.8235 5.15536C27.3986 5.60523 27.0612 6.14259 26.8113 6.76742C26.5738 7.37975 26.4176 8.05457 26.3427 8.79187L25.3679 9.35421C25.3679 8.12955 25.4866 6.97986 25.7241 5.90515C25.974 4.83045 26.3551 3.8807 26.8675 3.05593C27.3799 2.21866 28.0297 1.56883 28.817 1.10646C29.6168 0.63159 30.5665 0.394155 31.6662 0.394155C31.9161 0.394155 32.2036 0.425396 32.5285 0.487879C32.8534 0.537866 33.0783 0.5941 33.2033 0.656583ZM44.1503 18.5767C44.9751 18.5767 45.7374 18.408 46.4372 18.0706C47.137 17.7332 47.7118 17.2708 48.1617 16.6835C48.6116 16.0836 48.8678 15.4026 48.9302 14.6403H52.2293C52.1669 15.8399 51.7607 16.9584 51.0109 17.9956C50.2736 19.0203 49.3051 19.8514 48.1055 20.4887C46.9058 21.1135 45.5874 21.4259 44.1503 21.4259C42.6257 21.4259 41.2948 21.1572 40.1576 20.6199C39.0329 20.0825 38.0957 19.3452 37.3459 18.408C36.6086 17.4708 36.0525 16.396 35.6776 15.1839C35.3152 13.9592 35.134 12.6658 35.134 11.3037V10.5164C35.134 9.15427 35.3152 7.86712 35.6776 6.65495C36.0525 5.43028 36.6086 4.34933 37.3459 3.41208C38.0957 2.47484 39.0329 1.73754 40.1576 1.20019C41.2948 0.662832 42.6257 0.394155 44.1503 0.394155C45.7374 0.394155 47.1245 0.719066 48.3117 1.36889C49.4988 2.00622 50.4298 2.88098 51.1047 3.99317C51.792 5.09287 52.1669 6.34253 52.2293 7.74215H48.9302C48.8678 6.90488 48.6303 6.14884 48.2179 5.47402C47.818 4.7992 47.2682 4.26185 46.5684 3.86196C45.8811 3.44957 45.075 3.24338 44.1503 3.24338C43.0881 3.24338 42.1946 3.45582 41.4698 3.8807C40.7575 4.29309 40.1889 4.85544 39.764 5.56775C39.3516 6.26755 39.0517 7.04859 38.8642 7.91086C38.6893 8.76062 38.6018 9.62914 38.6018 10.5164V11.3037C38.6018 12.1909 38.6893 13.0657 38.8642 13.928C39.0392 14.7902 39.3329 15.5713 39.7453 16.2711C40.1701 16.9709 40.7387 17.5332 41.451 17.9581C42.1758 18.3705 43.0756 18.5767 44.1503 18.5767ZM55.2098 11.135V10.7038C55.2098 9.24174 55.4222 7.88586 55.8471 6.6362C56.272 5.37405 56.8843 4.2806 57.6841 3.35585C58.4839 2.4186 59.4524 1.6938 60.5896 1.18144C61.7268 0.656583 63.0014 0.394155 64.4135 0.394155C65.8381 0.394155 67.119 0.656583 68.2562 1.18144C69.4059 1.6938 70.3807 2.4186 71.1804 3.35585C71.9927 4.2806 72.6113 5.37405 73.0362 6.6362C73.4611 7.88586 73.6735 9.24174 73.6735 10.7038V11.135C73.6735 12.5971 73.4611 13.953 73.0362 15.2026C72.6113 16.4523 71.9927 17.5457 71.1804 18.483C70.3807 19.4077 69.4122 20.1325 68.275 20.6574C67.1503 21.1697 65.8756 21.4259 64.451 21.4259C63.0264 21.4259 61.7455 21.1697 60.6083 20.6574C59.4711 20.1325 58.4964 19.4077 57.6841 18.483C56.8843 17.5457 56.272 16.4523 55.8471 15.2026C55.4222 13.953 55.2098 12.5971 55.2098 11.135ZM58.6776 10.7038V11.135C58.6776 12.1472 58.7963 13.1032 59.0337 14.0029C59.2712 14.8902 59.6273 15.6775 60.1022 16.3648C60.5896 17.0521 61.1957 17.5957 61.9205 17.9956C62.6453 18.383 63.4888 18.5767 64.451 18.5767C65.4008 18.5767 66.2318 18.383 66.9441 17.9956C67.6689 17.5957 68.2687 17.0521 68.7436 16.3648C69.2185 15.6775 69.5746 14.8902 69.8121 14.0029C70.062 13.1032 70.187 12.1472 70.187 11.135V10.7038C70.187 9.70412 70.062 8.76062 69.8121 7.87337C69.5746 6.97361 69.2122 6.18008 68.7249 5.49277C68.25 4.79296 67.6501 4.24311 66.9253 3.84321C66.213 3.44332 65.3758 3.24338 64.4135 3.24338C63.4638 3.24338 62.6265 3.44332 61.9017 3.84321C61.1894 4.24311 60.5896 4.79296 60.1022 5.49277C59.6273 6.18008 59.2712 6.97361 59.0337 7.87337C58.7963 8.76062 58.6776 9.70412 58.6776 10.7038Z" fill="#999999"/>
</svg>
